<svg width="2868" height="216" viewBox="0 0 2868 216" fill="none" xmlns="http://www.w3.org/2000/svg">
<path d="M0.280001 213V3.192H77.464C91.96 3.192 104.296 4.536 114.472 7.224C124.648 9.912 132.952 13.704 139.384 18.6C145.816 23.496 150.472 29.448 153.352 36.456C156.328 43.464 157.816 51.288 157.816 59.928C157.816 64.632 157.144 69.192 155.8 73.608C154.456 77.928 152.344 82.008 149.464 85.848C146.584 89.688 142.888 93.192 138.376 96.36C133.864 99.432 128.44 102.12 122.104 104.424C135.928 107.784 146.152 113.256 152.776 120.84C159.4 128.328 162.712 137.976 162.712 149.784C162.712 158.712 160.984 167.016 157.528 174.696C154.072 182.376 148.984 189.096 142.264 194.856C135.64 200.52 127.432 204.984 117.64 208.248C107.848 211.416 96.664 213 84.088 213H0.280001ZM48.952 124.008V176.28H83.224C89.656 176.28 94.888 175.464 98.92 173.832C103.048 172.2 106.264 170.088 108.568 167.496C110.872 164.904 112.456 161.976 113.32 158.712C114.184 155.448 114.616 152.136 114.616 148.776C114.616 144.936 114.088 141.48 113.032 138.408C112.072 135.336 110.344 132.744 107.848 130.632C105.448 128.52 102.232 126.888 98.2 125.736C94.168 124.584 89.08 124.008 82.936 124.008H48.952ZM48.952 91.464H74.296C79.672 91.464 84.52 91.08 88.84 90.312C93.16 89.544 96.808 88.2 99.784 86.28C102.856 84.36 105.16 81.72 106.696 78.36C108.328 75 109.144 70.776 109.144 65.688C109.144 60.696 108.52 56.568 107.272 53.304C106.024 49.944 104.104 47.256 101.512 45.24C98.92 43.224 95.608 41.784 91.576 40.92C87.64 40.056 82.936 39.624 77.464 39.624H48.952V91.464ZM253.792 174.12H331.552V213H205.12V3.192H253.792V174.12ZM565.845 108.024C565.845 123.192 563.205 137.304 557.924 150.36C552.741 163.416 545.397 174.792 535.892 184.488C526.388 194.088 514.917 201.624 501.477 207.096C488.133 212.568 473.301 215.304 456.98 215.304C440.66 215.304 425.78 212.568 412.34 207.096C398.9 201.624 387.38 194.088 377.78 184.488C368.276 174.792 360.884 163.416 355.604 150.36C350.42 137.304 347.828 123.192 347.828 108.024C347.828 92.856 350.42 78.744 355.604 65.688C360.884 52.632 368.276 41.304 377.78 31.704C387.38 22.104 398.9 14.568 412.34 9.096C425.78 3.62399 440.66 0.887993 456.98 0.887993C473.301 0.887993 488.133 3.67199 501.477 9.23999C514.917 14.712 526.388 22.248 535.892 31.848C545.397 41.448 552.741 52.776 557.924 65.832C563.205 78.888 565.845 92.952 565.845 108.024ZM516.02 108.024C516.02 97.656 514.676 88.344 511.988 80.088C509.3 71.736 505.412 64.68 500.324 58.92C495.332 53.16 489.188 48.744 481.892 45.672C474.596 42.6 466.292 41.064 456.98 41.064C447.573 41.064 439.172 42.6 431.78 45.672C424.484 48.744 418.292 53.16 413.204 58.92C408.212 64.68 404.372 71.736 401.684 80.088C398.996 88.344 397.652 97.656 397.652 108.024C397.652 118.488 398.996 127.896 401.684 136.248C404.372 144.504 408.212 151.512 413.204 157.272C418.292 163.032 424.484 167.448 431.78 170.52C439.172 173.496 447.573 174.984 456.98 174.984C466.292 174.984 474.596 173.496 481.892 170.52C489.188 167.448 495.332 163.032 500.324 157.272C505.412 151.512 509.3 144.504 511.988 136.248C514.676 127.896 516.02 118.488 516.02 108.024ZM745.932 158.712C747.084 158.712 748.236 158.952 749.388 159.432C750.54 159.816 751.644 160.536 752.7 161.592L771.996 181.896C763.548 192.936 752.94 201.288 740.172 206.952C727.5 212.52 712.476 215.304 695.1 215.304C679.164 215.304 664.86 212.616 652.188 207.24C639.612 201.768 628.908 194.28 620.076 184.776C611.34 175.176 604.62 163.848 599.916 150.792C595.212 137.64 592.86 123.384 592.86 108.024C592.86 92.376 595.548 78.024 600.924 64.968C606.3 51.816 613.788 40.488 623.388 30.984C633.084 21.48 644.652 14.088 658.092 8.80799C671.532 3.52799 686.364 0.887993 702.588 0.887993C710.46 0.887993 717.852 1.60799 724.764 3.04799C731.772 4.39198 738.3 6.31198 744.348 8.80799C750.396 11.208 755.964 14.136 761.052 17.592C766.14 20.952 770.652 24.696 774.588 28.824L758.172 50.856C757.116 52.2 755.868 53.448 754.428 54.6C752.988 55.656 750.972 56.184 748.38 56.184C746.652 56.184 745.02 55.8 743.484 55.032C741.948 54.264 740.316 53.352 738.588 52.296C736.86 51.144 734.94 49.944 732.828 48.696C730.812 47.352 728.364 46.152 725.484 45.096C722.7 43.944 719.388 42.984 715.548 42.216C711.804 41.448 707.388 41.064 702.3 41.064C693.468 41.064 685.404 42.648 678.108 45.816C670.812 48.888 664.524 53.352 659.244 59.208C654.06 64.968 649.98 71.976 647.004 80.232C644.124 88.488 642.684 97.752 642.684 108.024C642.684 118.776 644.124 128.328 647.004 136.68C649.98 145.032 653.964 152.088 658.956 157.848C664.044 163.512 669.948 167.832 676.668 170.808C683.388 173.784 690.588 175.272 698.268 175.272C702.684 175.272 706.716 175.08 710.364 174.696C714.012 174.216 717.372 173.448 720.444 172.392C723.612 171.336 726.588 169.992 729.372 168.36C732.252 166.632 735.132 164.52 738.012 162.024C739.164 161.064 740.412 160.296 741.756 159.72C743.1 159.048 744.492 158.712 745.932 158.712ZM858.749 88.152H866.525C873.725 88.152 878.909 85.896 882.077 81.384L929.309 12.84C931.901 9.09599 934.829 6.55199 938.093 5.20799C941.453 3.86399 945.533 3.192 950.333 3.192H992.669L930.461 88.008C928.253 91.08 925.949 93.624 923.549 95.64C921.149 97.656 918.701 99.336 916.205 100.68C919.853 102.024 923.165 103.896 926.141 106.296C929.213 108.6 931.997 111.72 934.493 115.656L997.853 213H954.365C951.581 213 949.181 212.808 947.165 212.424C945.245 212.04 943.565 211.464 942.125 210.696C940.685 209.928 939.437 209.016 938.381 207.96C937.325 206.808 936.317 205.512 935.357 204.072L887.837 131.064C886.109 128.376 883.901 126.504 881.213 125.448C878.621 124.296 875.069 123.72 870.557 123.72H858.749V213H810.077V3.192H858.749V88.152ZM1031.51 213V3.192H1108.7C1123.19 3.192 1135.53 4.536 1145.7 7.224C1155.88 9.912 1164.18 13.704 1170.62 18.6C1177.05 23.496 1181.7 29.448 1184.58 36.456C1187.56 43.464 1189.05 51.288 1189.05 59.928C1189.05 64.632 1188.38 69.192 1187.03 73.608C1185.69 77.928 1183.58 82.008 1180.7 85.848C1177.82 89.688 1174.12 93.192 1169.61 96.36C1165.1 99.432 1159.67 102.12 1153.34 104.424C1167.16 107.784 1177.38 113.256 1184.01 120.84C1190.63 128.328 1193.94 137.976 1193.94 149.784C1193.94 158.712 1192.22 167.016 1188.76 174.696C1185.3 182.376 1180.22 189.096 1173.5 194.856C1166.87 200.52 1158.66 204.984 1148.87 208.248C1139.08 211.416 1127.9 213 1115.32 213H1031.51ZM1080.18 124.008V176.28H1114.46C1120.89 176.28 1126.12 175.464 1130.15 173.832C1134.28 172.2 1137.5 170.088 1139.8 167.496C1142.1 164.904 1143.69 161.976 1144.55 158.712C1145.42 155.448 1145.85 152.136 1145.85 148.776C1145.85 144.936 1145.32 141.48 1144.26 138.408C1143.3 135.336 1141.58 132.744 1139.08 130.632C1136.68 128.52 1133.46 126.888 1129.43 125.736C1125.4 124.584 1120.31 124.008 1114.17 124.008H1080.18ZM1080.18 91.464H1105.53C1110.9 91.464 1115.75 91.08 1120.07 90.312C1124.39 89.544 1128.04 88.2 1131.02 86.28C1134.09 84.36 1136.39 81.72 1137.93 78.36C1139.56 75 1140.38 70.776 1140.38 65.688C1140.38 60.696 1139.75 56.568 1138.5 53.304C1137.26 49.944 1135.34 47.256 1132.74 45.24C1130.15 43.224 1126.84 41.784 1122.81 40.92C1118.87 40.056 1114.17 39.624 1108.7 39.624H1080.18V91.464ZM1323.62 174.552C1330.14 174.552 1335.95 173.496 1341.04 171.384C1346.22 169.176 1350.59 166.056 1354.14 162.024C1357.7 157.992 1360.38 153.096 1362.21 147.336C1364.13 141.48 1365.09 134.856 1365.09 127.464V3.192H1413.76V127.464C1413.76 140.328 1411.65 152.136 1407.42 162.888C1403.3 173.64 1397.34 182.904 1389.57 190.68C1381.79 198.456 1372.34 204.504 1361.2 208.824C1350.06 213.144 1337.54 215.304 1323.62 215.304C1309.6 215.304 1297.02 213.144 1285.89 208.824C1274.75 204.504 1265.3 198.456 1257.52 190.68C1249.74 182.904 1243.79 173.64 1239.66 162.888C1235.54 152.136 1233.47 140.328 1233.47 127.464V3.192H1282.14V127.32C1282.14 134.712 1283.06 141.336 1284.88 147.192C1286.8 152.952 1289.54 157.896 1293.09 162.024C1296.64 166.056 1300.96 169.176 1306.05 171.384C1311.23 173.496 1317.09 174.552 1323.62 174.552ZM1578.09 45.816C1576.65 48.12 1575.11 49.848 1573.48 51C1571.94 52.152 1569.93 52.728 1567.43 52.728C1565.22 52.728 1562.82 52.056 1560.23 50.712C1557.74 49.272 1554.86 47.688 1551.59 45.96C1548.42 44.232 1544.78 42.696 1540.65 41.352C1536.52 39.912 1531.82 39.192 1526.54 39.192C1517.42 39.192 1510.6 41.16 1506.09 45.096C1501.67 48.936 1499.46 54.168 1499.46 60.792C1499.46 65.016 1500.81 68.52 1503.5 71.304C1506.18 74.088 1509.69 76.488 1514.01 78.504C1518.42 80.52 1523.42 82.392 1528.98 84.12C1534.65 85.752 1540.41 87.624 1546.26 89.736C1552.12 91.752 1557.83 94.152 1563.4 96.936C1569.06 99.72 1574.06 103.272 1578.38 107.592C1582.79 111.912 1586.34 117.192 1589.03 123.432C1591.72 129.576 1593.06 137.016 1593.06 145.752C1593.06 155.448 1591.38 164.52 1588.02 172.968C1584.66 181.416 1579.77 188.808 1573.34 195.144C1567 201.384 1559.13 206.328 1549.72 209.976C1540.41 213.528 1529.8 215.304 1517.9 215.304C1511.37 215.304 1504.7 214.632 1497.88 213.288C1491.16 211.944 1484.63 210.072 1478.3 207.672C1471.96 205.176 1466.01 202.248 1460.44 198.888C1454.87 195.528 1450.02 191.784 1445.9 187.656L1460.3 164.904C1461.35 163.176 1462.84 161.784 1464.76 160.728C1466.68 159.672 1468.74 159.144 1470.95 159.144C1473.83 159.144 1476.71 160.056 1479.59 161.88C1482.57 163.704 1485.88 165.72 1489.53 167.928C1493.27 170.136 1497.54 172.152 1502.34 173.976C1507.14 175.8 1512.81 176.712 1519.34 176.712C1528.17 176.712 1535.03 174.792 1539.93 170.952C1544.82 167.016 1547.27 160.824 1547.27 152.376C1547.27 147.48 1545.93 143.496 1543.24 140.424C1540.55 137.352 1537 134.808 1532.58 132.792C1528.26 130.776 1523.32 129 1517.75 127.464C1512.18 125.928 1506.47 124.248 1500.62 122.424C1494.76 120.504 1489.05 118.2 1483.48 115.512C1477.91 112.728 1472.92 109.128 1468.5 104.712C1464.18 100.2 1460.68 94.632 1457.99 88.008C1455.3 81.288 1453.96 73.032 1453.96 63.24C1453.96 55.368 1455.54 47.688 1458.71 40.2C1461.88 32.712 1466.54 26.04 1472.68 20.184C1478.82 14.328 1486.36 9.67199 1495.29 6.21598C1504.22 2.66399 1514.44 0.887993 1525.96 0.887993C1532.39 0.887993 1538.63 1.41599 1544.68 2.472C1550.82 3.432 1556.63 4.91999 1562.1 6.93598C1567.58 8.85599 1572.66 11.208 1577.37 13.992C1582.17 16.68 1586.44 19.752 1590.18 23.208L1578.09 45.816ZM1785.45 3.192V41.784H1726.41V213H1677.73V41.784H1618.69V3.192H1785.45ZM1956.41 3.192V40.632H1870.3V89.592H1936.25V125.592H1870.3V175.56H1956.41V213H1821.34V3.192H1956.41ZM2048.7 135.384V213H2000.02V3.192H2068.28C2083.45 3.192 2096.36 4.776 2107.02 7.944C2117.77 11.016 2126.5 15.336 2133.22 20.904C2140.04 26.472 2144.98 33.048 2148.06 40.632C2151.13 48.216 2152.66 56.472 2152.66 65.4C2152.66 72.216 2151.75 78.648 2149.93 84.696C2148.1 90.744 2145.37 96.36 2141.72 101.544C2138.17 106.632 2133.75 111.192 2128.47 115.224C2123.29 119.256 2117.29 122.568 2110.47 125.16C2113.74 126.792 2116.76 128.808 2119.54 131.208C2122.42 133.608 2124.92 136.536 2127.03 139.992L2171.67 213H2127.61C2119.45 213 2113.59 209.928 2110.04 203.784L2075.19 142.872C2073.66 140.184 2071.83 138.264 2069.72 137.112C2067.7 135.96 2064.82 135.384 2061.08 135.384H2048.7ZM2048.7 101.832H2068.28C2074.9 101.832 2080.52 101.016 2085.13 99.384C2089.83 97.656 2093.67 95.304 2096.65 92.328C2099.62 89.352 2101.78 85.896 2103.13 81.96C2104.47 77.928 2105.14 73.608 2105.14 69C2105.14 59.784 2102.12 52.584 2096.07 47.4C2090.12 42.216 2080.86 39.624 2068.28 39.624H2048.7V101.832ZM2332.2 213H2283.24V3.192H2332.2V213ZM2412.64 3.192C2414.76 3.192 2416.53 3.288 2417.97 3.47999C2419.41 3.67199 2420.71 4.05599 2421.86 4.632C2423.01 5.112 2424.12 5.832 2425.17 6.79199C2426.23 7.75199 2427.43 9.04799 2428.77 10.68L2528.42 136.68C2528.04 132.648 2527.75 128.76 2527.56 125.016C2527.36 121.176 2527.27 117.576 2527.27 114.216V3.192H2570.18V213H2544.84C2541.09 213 2537.92 212.424 2535.33 211.272C2532.74 210.12 2530.24 208.008 2527.84 204.936L2428.92 79.944C2429.2 83.592 2429.44 87.192 2429.64 90.744C2429.83 94.2 2429.92 97.464 2429.92 100.536V213H2387.01V3.192H2412.64ZM2761.52 158.712C2762.67 158.712 2763.82 158.952 2764.97 159.432C2766.12 159.816 2767.23 160.536 2768.28 161.592L2787.58 181.896C2779.13 192.936 2768.52 201.288 2755.76 206.952C2743.08 212.52 2728.06 215.304 2710.68 215.304C2694.75 215.304 2680.44 212.616 2667.77 207.24C2655.2 201.768 2644.49 194.28 2635.66 184.776C2626.92 175.176 2620.2 163.848 2615.5 150.792C2610.8 137.64 2608.44 123.384 2608.44 108.024C2608.44 92.376 2611.13 78.024 2616.51 64.968C2621.88 51.816 2629.37 40.488 2638.97 30.984C2648.67 21.48 2660.24 14.088 2673.68 8.80799C2687.12 3.52799 2701.95 0.887993 2718.17 0.887993C2726.04 0.887993 2733.44 1.60799 2740.35 3.04799C2747.36 4.39198 2753.88 6.31198 2759.93 8.80799C2765.98 11.208 2771.55 14.136 2776.64 17.592C2781.72 20.952 2786.24 24.696 2790.17 28.824L2773.76 50.856C2772.7 52.2 2771.45 53.448 2770.01 54.6C2768.57 55.656 2766.56 56.184 2763.96 56.184C2762.24 56.184 2760.6 55.8 2759.07 55.032C2757.53 54.264 2755.9 53.352 2754.17 52.296C2752.44 51.144 2750.52 49.944 2748.41 48.696C2746.4 47.352 2743.95 46.152 2741.07 45.096C2738.28 43.944 2734.97 42.984 2731.13 42.216C2727.39 41.448 2722.97 41.064 2717.88 41.064C2709.05 41.064 2700.99 42.648 2693.69 45.816C2686.4 48.888 2680.11 53.352 2674.83 59.208C2669.64 64.968 2665.56 71.976 2662.59 80.232C2659.71 88.488 2658.27 97.752 2658.27 108.024C2658.27 118.776 2659.71 128.328 2662.59 136.68C2665.56 145.032 2669.55 152.088 2674.54 157.848C2679.63 163.512 2685.53 167.832 2692.25 170.808C2698.97 173.784 2706.17 175.272 2713.85 175.272C2718.27 175.272 2722.3 175.08 2725.95 174.696C2729.6 174.216 2732.96 173.448 2736.03 172.392C2739.2 171.336 2742.17 169.992 2744.96 168.36C2747.84 166.632 2750.72 164.52 2753.6 162.024C2754.75 161.064 2756 160.296 2757.34 159.72C2758.68 159.048 2760.08 158.712 2761.52 158.712ZM2817.02 190.392C2817.02 186.936 2817.65 183.72 2818.89 180.744C2820.24 177.768 2822.01 175.176 2824.22 172.968C2826.53 170.76 2829.21 169.032 2832.29 167.784C2835.36 166.44 2838.72 165.768 2842.37 165.768C2845.92 165.768 2849.23 166.44 2852.3 167.784C2855.37 169.032 2858.06 170.76 2860.37 172.968C2862.67 175.176 2864.45 177.768 2865.69 180.744C2867.04 183.72 2867.71 186.936 2867.71 190.392C2867.71 193.848 2867.04 197.112 2865.69 200.184C2864.45 203.16 2862.67 205.752 2860.37 207.96C2858.06 210.168 2855.37 211.896 2852.3 213.144C2849.23 214.392 2845.92 215.016 2842.37 215.016C2838.72 215.016 2835.36 214.392 2832.29 213.144C2829.21 211.896 2826.53 210.168 2824.22 207.96C2822.01 205.752 2820.24 203.16 2818.89 200.184C2817.65 197.112 2817.02 193.848 2817.02 190.392Z" fill="#E54B4B"/>
</svg>
