<svg width="3345" height="360" viewBox="0 0 3345 360" fill="none" xmlns="http://www.w3.org/2000/svg">
<path d="M468.28 307V97.192H545.464C559.96 97.192 572.296 98.536 582.472 101.224C592.648 103.912 600.952 107.704 607.384 112.6C613.816 117.496 618.472 123.448 621.352 130.456C624.328 137.464 625.816 145.288 625.816 153.928C625.816 158.632 625.144 163.192 623.8 167.608C622.456 171.928 620.344 176.008 617.464 179.848C614.584 183.688 610.888 187.192 606.376 190.36C601.864 193.432 596.44 196.12 590.104 198.424C603.928 201.784 614.152 207.256 620.776 214.84C627.4 222.328 630.712 231.976 630.712 243.784C630.712 252.712 628.984 261.016 625.528 268.696C622.072 276.376 616.984 283.096 610.264 288.856C603.64 294.52 595.432 298.984 585.64 302.248C575.848 305.416 564.664 307 552.088 307H468.28ZM516.952 218.008V270.28H551.224C557.656 270.28 562.888 269.464 566.92 267.832C571.048 266.2 574.264 264.088 576.568 261.496C578.872 258.904 580.456 255.976 581.32 252.712C582.184 249.448 582.616 246.136 582.616 242.776C582.616 238.936 582.088 235.48 581.032 232.408C580.072 229.336 578.344 226.744 575.848 224.632C573.448 222.52 570.232 220.888 566.2 219.736C562.168 218.584 557.08 218.008 550.936 218.008H516.952ZM516.952 185.464H542.296C547.672 185.464 552.52 185.08 556.84 184.312C561.16 183.544 564.808 182.2 567.784 180.28C570.856 178.36 573.16 175.72 574.696 172.36C576.328 169 577.144 164.776 577.144 159.688C577.144 154.696 576.52 150.568 575.272 147.304C574.024 143.944 572.104 141.256 569.512 139.24C566.92 137.224 563.608 135.784 559.576 134.92C555.64 134.056 550.936 133.624 545.464 133.624H516.952V185.464ZM721.792 268.12H799.552V307H673.12V97.192H721.792V268.12ZM1033.84 202.024C1033.84 217.192 1031.2 231.304 1025.92 244.36C1020.74 257.416 1013.4 268.792 1003.89 278.488C994.388 288.088 982.917 295.624 969.477 301.096C956.133 306.568 941.301 309.304 924.98 309.304C908.66 309.304 893.78 306.568 880.34 301.096C866.9 295.624 855.38 288.088 845.78 278.488C836.276 268.792 828.884 257.416 823.604 244.36C818.42 231.304 815.828 217.192 815.828 202.024C815.828 186.856 818.42 172.744 823.604 159.688C828.884 146.632 836.276 135.304 845.78 125.704C855.38 116.104 866.9 108.568 880.34 103.096C893.78 97.624 908.66 94.888 924.98 94.888C941.301 94.888 956.133 97.672 969.477 103.24C982.917 108.712 994.388 116.248 1003.89 125.848C1013.4 135.448 1020.74 146.776 1025.92 159.832C1031.2 172.888 1033.84 186.952 1033.84 202.024ZM984.02 202.024C984.02 191.656 982.676 182.344 979.988 174.088C977.3 165.736 973.412 158.68 968.324 152.92C963.332 147.16 957.188 142.744 949.892 139.672C942.596 136.6 934.292 135.064 924.98 135.064C915.573 135.064 907.172 136.6 899.78 139.672C892.484 142.744 886.292 147.16 881.204 152.92C876.212 158.68 872.372 165.736 869.684 174.088C866.996 182.344 865.652 191.656 865.652 202.024C865.652 212.488 866.996 221.896 869.684 230.248C872.372 238.504 876.212 245.512 881.204 251.272C886.292 257.032 892.484 261.448 899.78 264.52C907.172 267.496 915.573 268.984 924.98 268.984C934.292 268.984 942.596 267.496 949.892 264.52C957.188 261.448 963.332 257.032 968.324 251.272C973.412 245.512 977.3 238.504 979.988 230.248C982.676 221.896 984.02 212.488 984.02 202.024ZM1213.93 252.712C1215.08 252.712 1216.24 252.952 1217.39 253.432C1218.54 253.816 1219.64 254.536 1220.7 255.592L1240 275.896C1231.55 286.936 1220.94 295.288 1208.17 300.952C1195.5 306.52 1180.48 309.304 1163.1 309.304C1147.16 309.304 1132.86 306.616 1120.19 301.24C1107.61 295.768 1096.91 288.28 1088.08 278.776C1079.34 269.176 1072.62 257.848 1067.92 244.792C1063.21 231.64 1060.86 217.384 1060.86 202.024C1060.86 186.376 1063.55 172.024 1068.92 158.968C1074.3 145.816 1081.79 134.488 1091.39 124.984C1101.08 115.48 1112.65 108.088 1126.09 102.808C1139.53 97.528 1154.36 94.888 1170.59 94.888C1178.46 94.888 1185.85 95.608 1192.76 97.048C1199.77 98.392 1206.3 100.312 1212.35 102.808C1218.4 105.208 1223.96 108.136 1229.05 111.592C1234.14 114.952 1238.65 118.696 1242.59 122.824L1226.17 144.856C1225.12 146.2 1223.87 147.448 1222.43 148.6C1220.99 149.656 1218.97 150.184 1216.38 150.184C1214.65 150.184 1213.02 149.8 1211.48 149.032C1209.95 148.264 1208.32 147.352 1206.59 146.296C1204.86 145.144 1202.94 143.944 1200.83 142.696C1198.81 141.352 1196.36 140.152 1193.48 139.096C1190.7 137.944 1187.39 136.984 1183.55 136.216C1179.8 135.448 1175.39 135.064 1170.3 135.064C1161.47 135.064 1153.4 136.648 1146.11 139.816C1138.81 142.888 1132.52 147.352 1127.24 153.208C1122.06 158.968 1117.98 165.976 1115 174.232C1112.12 182.488 1110.68 191.752 1110.68 202.024C1110.68 212.776 1112.12 222.328 1115 230.68C1117.98 239.032 1121.96 246.088 1126.96 251.848C1132.04 257.512 1137.95 261.832 1144.67 264.808C1151.39 267.784 1158.59 269.272 1166.27 269.272C1170.68 269.272 1174.72 269.08 1178.36 268.696C1182.01 268.216 1185.37 267.448 1188.44 266.392C1191.61 265.336 1194.59 263.992 1197.37 262.36C1200.25 260.632 1203.13 258.52 1206.01 256.024C1207.16 255.064 1208.41 254.296 1209.76 253.72C1211.1 253.048 1212.49 252.712 1213.93 252.712ZM1326.75 182.152H1334.53C1341.73 182.152 1346.91 179.896 1350.08 175.384L1397.31 106.84C1399.9 103.096 1402.83 100.552 1406.09 99.208C1409.45 97.864 1413.53 97.192 1418.33 97.192H1460.67L1398.46 182.008C1396.25 185.08 1393.95 187.624 1391.55 189.64C1389.15 191.656 1386.7 193.336 1384.21 194.68C1387.85 196.024 1391.17 197.896 1394.14 200.296C1397.21 202.6 1400 205.72 1402.49 209.656L1465.85 307H1422.37C1419.58 307 1417.18 306.808 1415.17 306.424C1413.25 306.04 1411.57 305.464 1410.13 304.696C1408.69 303.928 1407.44 303.016 1406.38 301.96C1405.33 300.808 1404.32 299.512 1403.36 298.072L1355.84 225.064C1354.11 222.376 1351.9 220.504 1349.21 219.448C1346.62 218.296 1343.07 217.72 1338.56 217.72H1326.75V307H1278.08V97.192H1326.75V182.152ZM1499.51 307V97.192H1576.7C1591.19 97.192 1603.53 98.536 1613.7 101.224C1623.88 103.912 1632.18 107.704 1638.62 112.6C1645.05 117.496 1649.7 123.448 1652.58 130.456C1655.56 137.464 1657.05 145.288 1657.05 153.928C1657.05 158.632 1656.38 163.192 1655.03 167.608C1653.69 171.928 1651.58 176.008 1648.7 179.848C1645.82 183.688 1642.12 187.192 1637.61 190.36C1633.1 193.432 1627.67 196.12 1621.34 198.424C1635.16 201.784 1645.38 207.256 1652.01 214.84C1658.63 222.328 1661.94 231.976 1661.94 243.784C1661.94 252.712 1660.22 261.016 1656.76 268.696C1653.3 276.376 1648.22 283.096 1641.5 288.856C1634.87 294.52 1626.66 298.984 1616.87 302.248C1607.08 305.416 1595.9 307 1583.32 307H1499.51ZM1548.18 218.008V270.28H1582.46C1588.89 270.28 1594.12 269.464 1598.15 267.832C1602.28 266.2 1605.5 264.088 1607.8 261.496C1610.1 258.904 1611.69 255.976 1612.55 252.712C1613.42 249.448 1613.85 246.136 1613.85 242.776C1613.85 238.936 1613.32 235.48 1612.26 232.408C1611.3 229.336 1609.58 226.744 1607.08 224.632C1604.68 222.52 1601.46 220.888 1597.43 219.736C1593.4 218.584 1588.31 218.008 1582.17 218.008H1548.18ZM1548.18 185.464H1573.53C1578.9 185.464 1583.75 185.08 1588.07 184.312C1592.39 183.544 1596.04 182.2 1599.02 180.28C1602.09 178.36 1604.39 175.72 1605.93 172.36C1607.56 169 1608.38 164.776 1608.38 159.688C1608.38 154.696 1607.75 150.568 1606.5 147.304C1605.26 143.944 1603.34 141.256 1600.74 139.24C1598.15 137.224 1594.84 135.784 1590.81 134.92C1586.87 134.056 1582.17 133.624 1576.7 133.624H1548.18V185.464ZM1791.62 268.552C1798.14 268.552 1803.95 267.496 1809.04 265.384C1814.22 263.176 1818.59 260.056 1822.14 256.024C1825.7 251.992 1828.38 247.096 1830.21 241.336C1832.13 235.48 1833.09 228.856 1833.09 221.464V97.192H1881.76V221.464C1881.76 234.328 1879.65 246.136 1875.42 256.888C1871.3 267.64 1865.34 276.904 1857.57 284.68C1849.79 292.456 1840.34 298.504 1829.2 302.824C1818.06 307.144 1805.54 309.304 1791.62 309.304C1777.6 309.304 1765.02 307.144 1753.89 302.824C1742.75 298.504 1733.3 292.456 1725.52 284.68C1717.74 276.904 1711.79 267.64 1707.66 256.888C1703.54 246.136 1701.47 234.328 1701.47 221.464V97.192H1750.14V221.32C1750.14 228.712 1751.06 235.336 1752.88 241.192C1754.8 246.952 1757.54 251.896 1761.09 256.024C1764.64 260.056 1768.96 263.176 1774.05 265.384C1779.23 267.496 1785.09 268.552 1791.62 268.552ZM2046.09 139.816C2044.65 142.12 2043.11 143.848 2041.48 145C2039.94 146.152 2037.93 146.728 2035.43 146.728C2033.22 146.728 2030.82 146.056 2028.23 144.712C2025.74 143.272 2022.86 141.688 2019.59 139.96C2016.42 138.232 2012.78 136.696 2008.65 135.352C2004.52 133.912 1999.82 133.192 1994.54 133.192C1985.42 133.192 1978.6 135.16 1974.09 139.096C1969.67 142.936 1967.46 148.168 1967.46 154.792C1967.46 159.016 1968.81 162.52 1971.5 165.304C1974.18 168.088 1977.69 170.488 1982.01 172.504C1986.42 174.52 1991.42 176.392 1996.98 178.12C2002.65 179.752 2008.41 181.624 2014.26 183.736C2020.12 185.752 2025.83 188.152 2031.4 190.936C2037.06 193.72 2042.06 197.272 2046.38 201.592C2050.79 205.912 2054.34 211.192 2057.03 217.432C2059.72 223.576 2061.06 231.016 2061.06 239.752C2061.06 249.448 2059.38 258.52 2056.02 266.968C2052.66 275.416 2047.77 282.808 2041.34 289.144C2035 295.384 2027.13 300.328 2017.72 303.976C2008.41 307.528 1997.8 309.304 1985.9 309.304C1979.37 309.304 1972.7 308.632 1965.88 307.288C1959.16 305.944 1952.63 304.072 1946.3 301.672C1939.96 299.176 1934.01 296.248 1928.44 292.888C1922.87 289.528 1918.02 285.784 1913.9 281.656L1928.3 258.904C1929.35 257.176 1930.84 255.784 1932.76 254.728C1934.68 253.672 1936.74 253.144 1938.95 253.144C1941.83 253.144 1944.71 254.056 1947.59 255.88C1950.57 257.704 1953.88 259.72 1957.53 261.928C1961.27 264.136 1965.54 266.152 1970.34 267.976C1975.14 269.8 1980.81 270.712 1987.34 270.712C1996.17 270.712 2003.03 268.792 2007.93 264.952C2012.82 261.016 2015.27 254.824 2015.27 246.376C2015.27 241.48 2013.93 237.496 2011.24 234.424C2008.55 231.352 2005 228.808 2000.58 226.792C1996.26 224.776 1991.32 223 1985.75 221.464C1980.18 219.928 1974.47 218.248 1968.62 216.424C1962.76 214.504 1957.05 212.2 1951.48 209.512C1945.91 206.728 1940.92 203.128 1936.5 198.712C1932.18 194.2 1928.68 188.632 1925.99 182.008C1923.3 175.288 1921.96 167.032 1921.96 157.24C1921.96 149.368 1923.54 141.688 1926.71 134.2C1929.88 126.712 1934.54 120.04 1940.68 114.184C1946.82 108.328 1954.36 103.672 1963.29 100.216C1972.22 96.664 1982.44 94.888 1993.96 94.888C2000.39 94.888 2006.63 95.416 2012.68 96.472C2018.82 97.432 2024.63 98.92 2030.1 100.936C2035.58 102.856 2040.66 105.208 2045.37 107.992C2050.17 110.68 2054.44 113.752 2058.18 117.208L2046.09 139.816ZM2253.45 97.192V135.784H2194.41V307H2145.73V135.784H2086.69V97.192H2253.45ZM2424.41 97.192V134.632H2338.3V183.592H2404.25V219.592H2338.3V269.56H2424.41V307H2289.34V97.192H2424.41ZM2516.7 229.384V307H2468.02V97.192H2536.28C2551.45 97.192 2564.36 98.776 2575.02 101.944C2585.77 105.016 2594.5 109.336 2601.22 114.904C2608.04 120.472 2612.98 127.048 2616.06 134.632C2619.13 142.216 2620.66 150.472 2620.66 159.4C2620.66 166.216 2619.75 172.648 2617.93 178.696C2616.1 184.744 2613.37 190.36 2609.72 195.544C2606.17 200.632 2601.75 205.192 2596.47 209.224C2591.29 213.256 2585.29 216.568 2578.47 219.16C2581.74 220.792 2584.76 222.808 2587.54 225.208C2590.42 227.608 2592.92 230.536 2595.03 233.992L2639.67 307H2595.61C2587.45 307 2581.59 303.928 2578.04 297.784L2543.19 236.872C2541.66 234.184 2539.83 232.264 2537.72 231.112C2535.7 229.96 2532.82 229.384 2529.08 229.384H2516.7ZM2516.7 195.832H2536.28C2542.9 195.832 2548.52 195.016 2553.13 193.384C2557.83 191.656 2561.67 189.304 2564.65 186.328C2567.62 183.352 2569.78 179.896 2571.13 175.96C2572.47 171.928 2573.14 167.608 2573.14 163C2573.14 153.784 2570.12 146.584 2564.07 141.4C2558.12 136.216 2548.86 133.624 2536.28 133.624H2516.7V195.832ZM2800.2 307H2751.24V97.192H2800.2V307ZM2880.64 97.192C2882.76 97.192 2884.53 97.288 2885.97 97.48C2887.41 97.672 2888.71 98.056 2889.86 98.632C2891.01 99.112 2892.12 99.832 2893.17 100.792C2894.23 101.752 2895.43 103.048 2896.77 104.68L2996.42 230.68C2996.04 226.648 2995.75 222.76 2995.56 219.016C2995.36 215.176 2995.27 211.576 2995.27 208.216V97.192H3038.18V307H3012.84C3009.09 307 3005.92 306.424 3003.33 305.272C3000.74 304.12 2998.24 302.008 2995.84 298.936L2896.92 173.944C2897.2 177.592 2897.44 181.192 2897.64 184.744C2897.83 188.2 2897.92 191.464 2897.92 194.536V307H2855.01V97.192H2880.64ZM3229.52 252.712C3230.67 252.712 3231.82 252.952 3232.97 253.432C3234.12 253.816 3235.23 254.536 3236.28 255.592L3255.58 275.896C3247.13 286.936 3236.52 295.288 3223.76 300.952C3211.08 306.52 3196.06 309.304 3178.68 309.304C3162.75 309.304 3148.44 306.616 3135.77 301.24C3123.2 295.768 3112.49 288.28 3103.66 278.776C3094.92 269.176 3088.2 257.848 3083.5 244.792C3078.8 231.64 3076.44 217.384 3076.44 202.024C3076.44 186.376 3079.13 172.024 3084.51 158.968C3089.88 145.816 3097.37 134.488 3106.97 124.984C3116.67 115.48 3128.24 108.088 3141.68 102.808C3155.12 97.528 3169.95 94.888 3186.17 94.888C3194.04 94.888 3201.44 95.608 3208.35 97.048C3215.36 98.392 3221.88 100.312 3227.93 102.808C3233.98 105.208 3239.55 108.136 3244.64 111.592C3249.72 114.952 3254.24 118.696 3258.17 122.824L3241.76 144.856C3240.7 146.2 3239.45 147.448 3238.01 148.6C3236.57 149.656 3234.56 150.184 3231.96 150.184C3230.24 150.184 3228.6 149.8 3227.07 149.032C3225.53 148.264 3223.9 147.352 3222.17 146.296C3220.44 145.144 3218.52 143.944 3216.41 142.696C3214.4 141.352 3211.95 140.152 3209.07 139.096C3206.28 137.944 3202.97 136.984 3199.13 136.216C3195.39 135.448 3190.97 135.064 3185.88 135.064C3177.05 135.064 3168.99 136.648 3161.69 139.816C3154.4 142.888 3148.11 147.352 3142.83 153.208C3137.64 158.968 3133.56 165.976 3130.59 174.232C3127.71 182.488 3126.27 191.752 3126.27 202.024C3126.27 212.776 3127.71 222.328 3130.59 230.68C3133.56 239.032 3137.55 246.088 3142.54 251.848C3147.63 257.512 3153.53 261.832 3160.25 264.808C3166.97 267.784 3174.17 269.272 3181.85 269.272C3186.27 269.272 3190.3 269.08 3193.95 268.696C3197.6 268.216 3200.96 267.448 3204.03 266.392C3207.2 265.336 3210.17 263.992 3212.96 262.36C3215.84 260.632 3218.72 258.52 3221.6 256.024C3222.75 255.064 3224 254.296 3225.34 253.72C3226.68 253.048 3228.08 252.712 3229.52 252.712ZM3285.02 284.392C3285.02 280.936 3285.65 277.72 3286.89 274.744C3288.24 271.768 3290.01 269.176 3292.22 266.968C3294.53 264.76 3297.21 263.032 3300.29 261.784C3303.36 260.44 3306.72 259.768 3310.37 259.768C3313.92 259.768 3317.23 260.44 3320.3 261.784C3323.37 263.032 3326.06 264.76 3328.37 266.968C3330.67 269.176 3332.45 271.768 3333.69 274.744C3335.04 277.72 3335.71 280.936 3335.71 284.392C3335.71 287.848 3335.04 291.112 3333.69 294.184C3332.45 297.16 3330.67 299.752 3328.37 301.96C3326.06 304.168 3323.37 305.896 3320.3 307.144C3317.23 308.392 3313.92 309.016 3310.37 309.016C3306.72 309.016 3303.36 308.392 3300.29 307.144C3297.21 305.896 3294.53 304.168 3292.22 301.96C3290.01 299.752 3288.24 297.16 3286.89 294.184C3285.65 291.112 3285.02 287.848 3285.02 284.392Z" fill="#E54B4B"/>
<path d="M354.689 120.049C354.456 120.022 354.219 120.009 353.984 120.01H353.78C353.636 117.706 353.42 115.312 353.102 112.762C362.369 103.36 362.26 88.226 352.859 78.9587C350.317 76.4538 347.248 74.5489 343.874 73.3857C346.563 69.4454 347.995 64.7828 347.984 60.0123C347.984 46.7582 337.239 36.0134 323.985 36.0134C321.96 36.0104 319.944 36.2706 317.985 36.7874C317.985 36.5294 317.985 36.2714 317.985 36.0134C318.015 22.7825 307.314 12.0325 294.083 12.0025C287.98 11.989 282.103 14.3042 277.649 18.4762C276.779 18.1702 275.903 17.8762 275.033 17.5943C271.561 4.87483 258.434 -2.62032 245.716 0.852018C239.442 2.56494 234.139 6.76325 231.031 12.4765H230.959C226.802 4.77359 218.743 -0.015692 209.99 0.0150566C198.703 0.0285559 188.946 7.89345 186.537 18.9202C173.786 15.3039 160.517 22.7098 156.902 35.4614C156.849 35.6489 156.798 35.8372 156.749 36.0262C143.594 35.5184 132.518 45.772 132.011 58.9264C131.997 59.2923 131.992 59.6583 131.994 60.0251C131.994 61.0848 132.066 62.143 132.21 63.1929C120.723 69.6096 116.612 84.1244 123.03 95.6117C124.461 98.1736 126.353 100.449 128.61 102.323C127.397 108.155 126.638 114.073 126.342 120.022H125.994C122.681 120.024 119.995 122.711 119.997 126.024C119.997 126.254 120.01 126.484 120.036 126.712L122.034 144.021H89.8819C89.9194 143.534 89.8976 143.045 89.8159 142.563L71.8167 70.5666C71.1477 67.8974 68.7486 66.0248 65.997 66.0248H5.99972C2.68638 66.0248 0 68.7112 0 72.0245V96.0234C0 99.3367 2.68638 102.023 5.99972 102.023H43.312L53.8175 144.021H5.99972C2.68638 144.021 0 146.708 0 150.021V174.02C0 177.333 2.68638 180.02 5.99972 180.02H6.4437L19.8651 354.462C20.1073 357.593 22.724 360.008 25.8648 359.999H118.147C121.287 360.008 123.904 357.593 124.146 354.462L133.02 239.099L146.363 354.69C146.714 357.715 149.275 359.998 152.321 359.999H327.693C330.739 359.999 333.3 357.715 333.651 354.69L359.959 126.7C360.34 123.408 357.981 120.43 354.689 120.049ZM48.0158 90.0109H11.9994V78.0115H61.3112L77.8164 144.008H65.883C65.9205 143.522 65.8987 143.032 65.817 142.551H65.835L53.8355 94.5527C53.1666 91.8828 50.7674 90.0109 48.0158 90.0109ZM112.615 347.999H31.3966L27.2867 294.53L50.4397 297.841C51.9921 298.063 53.5573 298.175 55.1255 298.177C64.7933 298.185 73.9594 293.875 80.1203 286.424C85.6506 279.803 94.7102 277.313 102.847 280.178L117.415 285.332L112.615 347.999ZM118.369 272.937L106.855 268.863C93.9789 264.355 79.6568 268.29 70.8927 278.744C66.321 284.25 59.2128 286.977 52.1316 285.944L26.3328 282.26L24.6949 260.805C36.3786 270.278 53.0608 270.41 64.893 261.123L82.4182 247.492C87.8622 243.247 95.0709 242.012 101.617 244.204L120.102 250.366L118.369 272.937ZM131.994 168.007H119.994V180.007H125.514L121.05 238.03L105.409 232.816C95.0611 229.358 83.6677 231.31 75.0626 238.018L57.5374 251.65C49.2795 258.091 37.5043 257.316 30.1606 249.85L23.3089 242.866L18.5092 180.025H35.9983V168.025L11.9994 168.007V156.008H131.994V168.007ZM157.649 347.999L138.258 179.953C141.455 179.831 143.986 177.206 143.993 174.007V150.008C143.993 146.695 141.307 144.008 137.994 144.008H134.112L132.726 132.009H162.449L179.5 347.999H157.649ZM191.535 347.999L174.484 132.009H210.146L215.828 347.999H191.535ZM252.138 347.999H227.834L222.146 132.009H257.82L252.138 347.999ZM264.15 347.999L269.826 132.009H305.488L288.437 347.999H264.15ZM322.329 347.999H300.478L317.529 132.009H347.252L322.329 347.999ZM343.124 105.574C341.366 106.894 340.471 109.069 340.79 111.244C341.246 114.418 341.576 117.298 341.762 120.01H138.186C138.617 113.652 139.621 107.347 141.186 101.17C141.847 98.5275 140.645 95.7699 138.258 94.4567C132.469 91.3691 130.279 84.1732 133.366 78.3842C134.931 75.4503 137.654 73.3062 140.874 72.4737C144.072 71.6075 145.963 68.3129 145.097 65.1143C145.036 64.8893 144.962 64.6681 144.875 64.4521C142.4 58.3294 145.357 51.3599 151.48 48.8843C152.913 48.3046 154.446 48.0084 155.993 48.0129C157.388 48.0331 158.768 48.2971 160.073 48.7928C163.189 49.9193 166.628 48.3061 167.755 45.19C168.043 44.3905 168.16 43.5386 168.094 42.6911C168.094 42.5651 168.01 42.1391 167.992 42.0131C168.009 35.3864 173.395 30.0272 180.022 30.0437C183.126 30.0512 186.106 31.2624 188.337 33.4215C190.248 35.1337 192.998 35.5312 195.315 34.4295C197.989 33.1808 199.357 30.1742 198.543 27.3378C196.442 21.0981 199.798 14.3364 206.037 12.2357C212.277 10.1351 219.039 13.4904 221.139 19.7302C221.233 20.0091 221.317 20.2911 221.39 20.5761C222.229 23.3667 224.952 25.1509 227.846 24.8059C230.287 24.5179 232.777 24.3739 235.279 24.2599C237.744 24.1437 239.887 22.5298 240.679 20.1921C242.723 13.9509 249.441 10.5491 255.682 12.5942C260.208 14.0769 263.413 18.1177 263.826 22.862C264.064 25.3091 265.771 27.3641 268.134 28.0458C271.134 28.9097 274.181 29.9417 277.181 31.1236C279.735 32.1293 282.645 31.2744 284.249 29.0477C286.48 25.8829 290.114 24.0042 293.987 24.014C300.614 24.014 305.986 29.386 305.986 36.0134C305.969 37.8456 305.528 39.6485 304.696 41.2812C303.49 43.7343 304.095 46.6914 306.166 48.4748C306.682 48.9128 307.18 49.3748 307.678 49.8428L308.524 50.6227C310.733 52.6349 314.087 52.7144 316.389 50.8087C318.516 49.0163 321.204 48.0271 323.985 48.0129C330.583 47.9851 335.953 53.3106 335.981 59.9081C335.997 63.6931 334.218 67.2622 331.185 69.5279C328.819 71.3225 328.123 74.5781 329.547 77.1835C329.913 77.8555 330.237 78.5515 330.567 79.2534L331.281 80.7413C332.256 82.713 334.231 83.9925 336.429 84.0772C343 84.2669 348.173 89.7484 347.983 96.3196C347.877 99.9885 346.084 103.403 343.124 105.574Z" fill="#E54B4B"/>
<path d="M71.9967 168.007H47.9978V180.006H71.9967V168.007Z" fill="#E54B4B"/>
<path d="M107.995 168.007H83.9961V180.006H107.995V168.007Z" fill="#E54B4B"/>
</svg>
